<svg width="32" height="33" viewBox="0 0 32 33" fill="none" xmlns="http://www.w3.org/2000/svg">
<rect y="0.876221" width="32" height="32" rx="16" fill="#F7F7F7"/>
<path d="M17.6129 24.4668C15.9654 22.7631 16.2731 19.7958 18.2943 17.8407C20.3156 15.8856 23.2928 15.6838 24.9403 17.3908C26.5877 19.0945 26.28 22.0618 24.2588 24.0169C22.2343 25.972 19.2603 26.1738 17.6129 24.4668ZM18.7707 23.3387C19.8326 24.4403 21.8141 24.2518 23.1936 22.9186C24.5731 21.5855 24.8311 19.6138 23.7692 18.5122C22.7073 17.4107 20.7258 17.5992 19.3463 18.9324C17.9668 20.2655 17.7088 22.2371 18.7707 23.3387Z" fill="#262626"/>
<path d="M7.05994 24.4668C5.41252 22.7631 5.72017 19.7958 7.74141 17.8407C9.76265 15.8856 12.7399 15.6838 14.3873 17.3908C15.2111 18.241 15.5452 19.4087 15.4228 20.6063C15.2574 22.2206 14.7479 24.8935 14.6685 25.36C14.6553 25.446 14.6321 25.5915 14.4932 25.5915C14.1128 25.5915 13.3949 25.5915 13.3718 25.5915C13.0873 25.5982 13.1137 25.4427 13.1104 25.36C13.0972 25.1449 13.2758 24.3907 13.2494 24.4139C11.2579 25.9885 8.58828 26.0514 7.05994 24.4668ZM8.21777 23.3387C9.27967 24.4403 11.2612 24.2518 12.6407 22.9186C14.0202 21.5855 14.2782 19.6138 13.2163 18.5122C12.1544 17.4107 10.1728 17.5992 8.79338 18.9324C7.41391 20.2655 7.15588 22.2371 8.21777 23.3387Z" fill="#262626"/>
<path d="M12.0981 14.7279C11.3505 13.8513 11.6813 13.1301 12.3528 12.5347C13.6761 11.357 16.3391 10.2124 17.3249 10.0767C17.7682 10.0172 18.046 10.1727 18.2941 10.4076C18.5423 10.6424 18.7573 11.3934 18.9359 11.8763C19.1146 12.3593 19.6869 13.4179 20.0838 13.8877C20.3154 14.1655 21.4335 15.105 22.0753 15.5682C22.2076 15.6476 22.287 15.7369 22.2142 15.9023C22.1414 16.071 21.9992 16.0412 21.8966 15.9916C20.5767 15.3598 19.6902 14.9297 19.2866 14.5592C18.8863 14.1887 18.314 13.5072 18.099 13.2327C17.8839 12.9581 17.659 13.0375 17.2852 13.1268C16.9114 13.2161 15.9123 13.6925 15.5385 13.9538C15.1647 14.2152 15.2077 14.4864 15.3996 14.7081C15.5914 14.9297 16.6169 15.5715 16.8981 16.0114C17.3381 16.7028 16.9378 17.5927 16.7393 18.509C16.5475 19.3857 16.2928 20.57 16.2762 20.7188C16.2597 20.8545 16.1836 20.9273 16.0314 20.9107C15.8859 20.8942 15.8429 20.8115 15.8462 20.6791C15.8495 20.4476 15.7833 17.993 15.5385 17.3942C15.0787 16.2794 12.7895 15.5351 12.0981 14.7279Z" fill="#262626"/>
<path d="M16.0943 8.62118C16.3523 9.00823 16.5674 9.52429 16.0348 9.70623C13.8448 10.4638 13.0873 11.0361 12.6969 11.1949C11.8963 11.5257 11.2678 11.4099 11.1983 10.735C11.1388 10.1528 11.4861 9.38204 11.7376 9.14386C12.2139 8.69065 12.8557 8.27714 14.2385 8.14812C15.1515 8.06211 15.8363 8.23414 16.0943 8.62118Z" fill="#E83D3D"/>
<path d="M22.6644 10.9501C22.6313 11.8631 21.8936 12.5942 20.964 12.6173C20.1138 12.6372 19.1512 11.8995 19.2504 10.7053C19.3133 9.95434 19.9683 9.10086 20.9607 9.15379C21.9234 9.11409 22.7008 9.90803 22.6644 10.9501Z" fill="#262626"/>
</svg>
